solid OpenSCAD_Model
  facet normal -1 0 0
    outer loop
      vertex 0 0 0
      vertex 0 0 6
      vertex 0 30.5 0
    endloop
  endfacet
  facet normal -1 0 0
    outer loop
      vertex 0 30.5 0
      vertex 0 0 6
      vertex 0 6 6
    endloop
  endfacet
  facet normal -1 0 0
    outer loop
      vertex 0 30.5 0
      vertex 0 6 6
      vertex 0 13.0021 16
    endloop
  endfacet
  facet normal -1 0 0
    outer loop
      vertex 0 30.5 0
      vertex 0 13.0021 16
      vertex 0 30.5 16
    endloop
  endfacet
  facet normal 0 -1 0
    outer loop
      vertex 0 0 6
      vertex 0 0 0
      vertex 6 0 0
    endloop
  endfacet
  facet normal 0 -1 0
    outer loop
      vertex 6 0 6
      vertex 0 0 6
      vertex 6 0 0
    endloop
  endfacet
  facet normal 0 0 -1
    outer loop
      vertex 17 3.5 0
      vertex 14 0 0
      vertex 13 1 0
    endloop
  endfacet
  facet normal 0 0 -1
    outer loop
      vertex 4.7 23 0
      vertex 0 30.5 0
      vertex 4.7 30.5 0
    endloop
  endfacet
  facet normal 0 0 -1
    outer loop
      vertex 4.7 20.291 0
      vertex 0 30.5 0
      vertex 4.7 23 0
    endloop
  endfacet
  facet normal 0 0 -1
    outer loop
      vertex 4.71046 19.881 0
      vertex 0 30.5 0
      vertex 4.7 20.291 0
    endloop
  endfacet
  facet normal 0 0 -1
    outer loop
      vertex 17 3.5 0
      vertex 13 1 0
      vertex 7 1 0
    endloop
  endfacet
  facet normal 0 0 -1
    outer loop
      vertex 17 3.5 0
      vertex 7 1 0
      vertex 3 3.5 0
    endloop
  endfacet
  facet normal 0 0 -1
    outer loop
      vertex 7 1 0
      vertex 6 0 0
      vertex 3 3.5 0
    endloop
  endfacet
  facet normal 0 0 -1
    outer loop
      vertex 3 6 0
      vertex 4.74179 19.4725 0
      vertex 4.79388 19.0673 0
    endloop
  endfacet
  facet normal 0 0 -1
    outer loop
      vertex 14.6444 17.1449 0
      vertex 20 0 0
      vertex 14.4749 16.7918 0
    endloop
  endfacet
  facet normal 0 0 -1
    outer loop
      vertex 14.9278 17.887 0
      vertex 20 30.5 0
      vertex 14.7956 17.5105 0
    endloop
  endfacet
  facet normal 0 0 -1
    outer loop
      vertex 15.0406 18.273 0
      vertex 20 30.5 0
      vertex 14.9278 17.887 0
    endloop
  endfacet
  facet normal 0 0 -1
    outer loop
      vertex 15.1335 18.6669 0
      vertex 20 30.5 0
      vertex 15.0406 18.273 0
    endloop
  endfacet
  facet normal 0 0 -1
    outer loop
      vertex 15.2061 19.0673 0
      vertex 20 30.5 0
      vertex 15.1335 18.6669 0
    endloop
  endfacet
  facet normal 0 0 -1
    outer loop
      vertex 15.2582 19.4725 0
      vertex 20 30.5 0
      vertex 15.2061 19.0673 0
    endloop
  endfacet
  facet normal 0 0 -1
    outer loop
      vertex 15.2895 19.881 0
      vertex 20 30.5 0
      vertex 15.2582 19.4725 0
    endloop
  endfacet
  facet normal 0 0 -1
    outer loop
      vertex 15.3 20.291 0
      vertex 20 30.5 0
      vertex 15.2895 19.881 0
    endloop
  endfacet
  facet normal 0 0 -1
    outer loop
      vertex 3 6 0
      vertex 4.71046 19.881 0
      vertex 4.74179 19.4725 0
    endloop
  endfacet
  facet normal 0 0 -1
    outer loop
      vertex 3 6 0
      vertex 0 30.5 0
      vertex 4.71046 19.881 0
    endloop
  endfacet
  facet normal 0 0 -1
    outer loop
      vertex 15.3 30.1484 0
      vertex 15.3 30.5 0
      vertex 20 30.5 0
    endloop
  endfacet
  facet normal 0 0 -1
    outer loop
      vertex 15.3 30.1484 0
      vertex 20 30.5 0
      vertex 15.3 20.291 0
    endloop
  endfacet
  facet normal 0 0 -1
    outer loop
      vertex 14.7956 17.5105 0
      vertex 20 30.5 0
      vertex 20 0 0
    endloop
  endfacet
  facet normal 0 0 -1
    outer loop
      vertex 14.7956 17.5105 0
      vertex 20 0 0
      vertex 14.6444 17.1449 0
    endloop
  endfacet
  facet normal 0 0 -1
    outer loop
      vertex 17 3.5 0
      vertex 20 0 0
      vertex 14 0 0
    endloop
  endfacet
  facet normal 0 0 -1
    outer loop
      vertex 0 0 0
      vertex 0 30.5 0
      vertex 3 6 0
    endloop
  endfacet
  facet normal 0 0 -1
    outer loop
      vertex 0 0 0
      vertex 3 6 0
      vertex 3 3.5 0
    endloop
  endfacet
  facet normal 0 0 -1
    outer loop
      vertex 0 0 0
      vertex 3 3.5 0
      vertex 6 0 0
    endloop
  endfacet
  facet normal 0 0 -1
    outer loop
      vertex 17 6 0
      vertex 20 0 0
      vertex 17 3.5 0
    endloop
  endfacet
  facet normal 0 0 -1
    outer loop
      vertex 14.4749 16.7918 0
      vertex 20 0 0
      vertex 17 6 0
    endloop
  endfacet
  facet normal 0 0 -1
    outer loop
      vertex 3 6 0
      vertex 4.79388 19.0673 0
      vertex 4.86651 18.6669 0
    endloop
  endfacet
  facet normal 0 0 -1
    outer loop
      vertex 3 6 0
      vertex 4.86651 18.6669 0
      vertex 4.9594 18.273 0
    endloop
  endfacet
  facet normal 0 0 -1
    outer loop
      vertex 3 6 0
      vertex 4.9594 18.273 0
      vertex 5.07218 17.887 0
    endloop
  endfacet
  facet normal 0 0 -1
    outer loop
      vertex 3 6 0
      vertex 5.07218 17.887 0
      vertex 5.20442 17.5105 0
    endloop
  endfacet
  facet normal 0 0 -1
    outer loop
      vertex 3 6 0
      vertex 5.20442 17.5105 0
      vertex 5.35557 17.1449 0
    endloop
  endfacet
  facet normal 0 0 -1
    outer loop
      vertex 3 6 0
      vertex 5.35557 17.1449 0
      vertex 5.52506 16.7918 0
    endloop
  endfacet
  facet normal 0 0 -1
    outer loop
      vertex 3 6 0
      vertex 5.52506 16.7918 0
      vertex 5.71221 16.4525 0
    endloop
  endfacet
  facet normal 0 0 -1
    outer loop
      vertex 3 6 0
      vertex 5.71221 16.4525 0
      vertex 5.91628 16.1283 0
    endloop
  endfacet
  facet normal 0 0 -1
    outer loop
      vertex 3 6 0
      vertex 5.91628 16.1283 0
      vertex 6.13647 15.8206 0
    endloop
  endfacet
  facet normal 0 0 -1
    outer loop
      vertex 3 6 0
      vertex 6.13647 15.8206 0
      vertex 6.3719 15.5305 0
    endloop
  endfacet
  facet normal 0 0 -1
    outer loop
      vertex 3 6 0
      vertex 6.3719 15.5305 0
      vertex 6.62165 15.2592 0
    endloop
  endfacet
  facet normal 0 0 -1
    outer loop
      vertex 3 6 0
      vertex 6.62165 15.2592 0
      vertex 6.88474 15.0077 0
    endloop
  endfacet
  facet normal 0 0 -1
    outer loop
      vertex 3 6 0
      vertex 6.88474 15.0077 0
      vertex 7.16012 14.7771 0
    endloop
  endfacet
  facet normal 0 0 -1
    outer loop
      vertex 3 6 0
      vertex 7.16012 14.7771 0
      vertex 7.44671 14.5683 0
    endloop
  endfacet
  facet normal 0 0 -1
    outer loop
      vertex 3 6 0
      vertex 7.44671 14.5683 0
      vertex 7.74337 14.382 0
    endloop
  endfacet
  facet normal 0 0 -1
    outer loop
      vertex 3 6 0
      vertex 7.74337 14.382 0
      vertex 8.04894 14.2191 0
    endloop
  endfacet
  facet normal 0 0 -1
    outer loop
      vertex 3 6 0
      vertex 8.04894 14.2191 0
      vertex 8.36221 14.0801 0
    endloop
  endfacet
  facet normal 0 0 -1
    outer loop
      vertex 3 6 0
      vertex 8.36221 14.0801 0
      vertex 8.68194 13.9657 0
    endloop
  endfacet
  facet normal 0 0 -1
    outer loop
      vertex 3 6 0
      vertex 8.68194 13.9657 0
      vertex 9.00688 13.8762 0
    endloop
  endfacet
  facet normal 0 0 -1
    outer loop
      vertex 3 6 0
      vertex 9.00688 13.8762 0
      vertex 9.33573 13.812 0
    endloop
  endfacet
  facet normal 0 0 -1
    outer loop
      vertex 3 6 0
      vertex 9.33573 13.812 0
      vertex 9.66721 13.7734 0
    endloop
  endfacet
  facet normal 0 0 -1
    outer loop
      vertex 3 6 0
      vertex 9.66721 13.7734 0
      vertex 10 13.7605 0
    endloop
  endfacet
  facet normal 0 0 -1
    outer loop
      vertex 3 6 0
      vertex 10 13.7605 0
      vertex 10.3328 13.7734 0
    endloop
  endfacet
  facet normal 0 0 -1
    outer loop
      vertex 3 6 0
      vertex 10.3328 13.7734 0
      vertex 10.6643 13.812 0
    endloop
  endfacet
  facet normal 0 0 -1
    outer loop
      vertex 3 6 0
      vertex 10.6643 13.812 0
      vertex 10.9931 13.8762 0
    endloop
  endfacet
  facet normal 0 0 -1
    outer loop
      vertex 3 6 0
      vertex 10.9931 13.8762 0
      vertex 11.3181 13.9657 0
    endloop
  endfacet
  facet normal 0 0 -1
    outer loop
      vertex 3 6 0
      vertex 11.3181 13.9657 0
      vertex 11.6378 14.0801 0
    endloop
  endfacet
  facet normal 0 0 -1
    outer loop
      vertex 3 6 0
      vertex 11.6378 14.0801 0
      vertex 11.9511 14.2191 0
    endloop
  endfacet
  facet normal 0 0 -1
    outer loop
      vertex 3 6 0
      vertex 11.9511 14.2191 0
      vertex 12.2566 14.382 0
    endloop
  endfacet
  facet normal 0 0 -1
    outer loop
      vertex 3 6 0
      vertex 12.2566 14.382 0
      vertex 12.5533 14.5683 0
    endloop
  endfacet
  facet normal 0 0 -1
    outer loop
      vertex 3 6 0
      vertex 12.5533 14.5683 0
      vertex 12.8399 14.7771 0
    endloop
  endfacet
  facet normal 0 0 -1
    outer loop
      vertex 3 6 0
      vertex 12.8399 14.7771 0
      vertex 13.1153 15.0077 0
    endloop
  endfacet
  facet normal 0 0 -1
    outer loop
      vertex 14.2878 16.4525 0
      vertex 14.4749 16.7918 0
      vertex 17 6 0
    endloop
  endfacet
  facet normal 0 0 -1
    outer loop
      vertex 14.0837 16.1283 0
      vertex 14.2878 16.4525 0
      vertex 17 6 0
    endloop
  endfacet
  facet normal 0 0 -1
    outer loop
      vertex 13.8635 15.8206 0
      vertex 14.0837 16.1283 0
      vertex 17 6 0
    endloop
  endfacet
  facet normal 0 0 -1
    outer loop
      vertex 13.6281 15.5305 0
      vertex 13.8635 15.8206 0
      vertex 17 6 0
    endloop
  endfacet
  facet normal 0 0 -1
    outer loop
      vertex 13.3783 15.2592 0
      vertex 13.6281 15.5305 0
      vertex 17 6 0
    endloop
  endfacet
  facet normal 0 0 -1
    outer loop
      vertex 13.1153 15.0077 0
      vertex 13.3783 15.2592 0
      vertex 17 6 0
    endloop
  endfacet
  facet normal 0 0 -1
    outer loop
      vertex 3 6 0
      vertex 13.1153 15.0077 0
      vertex 17 6 0
    endloop
  endfacet
  facet normal 0 1 0
    outer loop
      vertex 0 30.5 0
      vertex 0 30.5 16
      vertex 4.7 30.5 0
    endloop
  endfacet
  facet normal 0 1 0
    outer loop
      vertex 4.7 30.5 14.1812
      vertex 0 30.5 16
      vertex 4.7 30.5 16
    endloop
  endfacet
  facet normal 0 1 0
    outer loop
      vertex 4.7 30.5 0
      vertex 0 30.5 16
      vertex 4.7 30.5 14.1812
    endloop
  endfacet
  facet normal 0 1 0
    outer loop
      vertex 4.7 30.5 1.34419
      vertex 4.7 30.5 0
      vertex 4.7 30.5 14.1812
    endloop
  endfacet
  facet normal 0 0 1
    outer loop
      vertex 11.9511 18.0722 16
      vertex 0 13.0021 16
      vertex 20 13.0021 16
    endloop
  endfacet
  facet normal 0 0 1
    outer loop
      vertex 11.9511 18.0722 16
      vertex 11.6378 17.9594 16
      vertex 0 13.0021 16
    endloop
  endfacet
  facet normal 0 0 1
    outer loop
      vertex 20 30.5 16
      vertex 15.3 30.5 16
      vertex 20 13.0021 16
    endloop
  endfacet
  facet normal 0 0 1
    outer loop
      vertex 15.3 30.5 16
      vertex 15.3 23 16
      vertex 20 13.0021 16
    endloop
  endfacet
  facet normal 0 0 1
    outer loop
      vertex 15.3 23 16
      vertex 15.2895 22.6672 16
      vertex 20 13.0021 16
    endloop
  endfacet
  facet normal 0 0 1
    outer loop
      vertex 15.2895 22.6672 16
      vertex 15.2582 22.3357 16
      vertex 20 13.0021 16
    endloop
  endfacet
  facet normal 0 0 1
    outer loop
      vertex 15.2582 22.3357 16
      vertex 15.2061 22.0069 16
      vertex 20 13.0021 16
    endloop
  endfacet
  facet normal 0 0 1
    outer loop
      vertex 15.2061 22.0069 16
      vertex 15.1335 21.6819 16
      vertex 20 13.0021 16
    endloop
  endfacet
  facet normal 0 0 1
    outer loop
      vertex 15.1335 21.6819 16
      vertex 15.0406 21.3622 16
      vertex 20 13.0021 16
    endloop
  endfacet
  facet normal 0 0 1
    outer loop
      vertex 15.0406 21.3622 16
      vertex 14.9278 21.0489 16
      vertex 20 13.0021 16
    endloop
  endfacet
  facet normal 0 0 1
    outer loop
      vertex 14.9278 21.0489 16
      vertex 14.7956 20.7434 16
      vertex 20 13.0021 16
    endloop
  endfacet
  facet normal 0 0 1
    outer loop
      vertex 14.7956 20.7434 16
      vertex 14.6444 20.4467 16
      vertex 20 13.0021 16
    endloop
  endfacet
  facet normal 0 0 1
    outer loop
      vertex 14.6444 20.4467 16
      vertex 14.4749 20.1601 16
      vertex 20 13.0021 16
    endloop
  endfacet
  facet normal 0 0 1
    outer loop
      vertex 14.4749 20.1601 16
      vertex 14.2878 19.8847 16
      vertex 20 13.0021 16
    endloop
  endfacet
  facet normal 0 0 1
    outer loop
      vertex 14.2878 19.8847 16
      vertex 14.0837 19.6217 16
      vertex 20 13.0021 16
    endloop
  endfacet
  facet normal 0 0 1
    outer loop
      vertex 14.0837 19.6217 16
      vertex 13.8635 19.3719 16
      vertex 20 13.0021 16
    endloop
  endfacet
  facet normal 0 0 1
    outer loop
      vertex 13.8635 19.3719 16
      vertex 13.6281 19.1365 16
      vertex 20 13.0021 16
    endloop
  endfacet
  facet normal 0 0 1
    outer loop
      vertex 13.6281 19.1365 16
      vertex 13.3783 18.9163 16
      vertex 20 13.0021 16
    endloop
  endfacet
  facet normal 0 0 1
    outer loop
      vertex 13.1153 18.7122 16
      vertex 12.8399 18.5251 16
      vertex 20 13.0021 16
    endloop
  endfacet
  facet normal 0 0 1
    outer loop
      vertex 5.20442 20.7434 16
      vertex 5.07218 21.0489 16
      vertex 0 30.5 16
    endloop
  endfacet
  facet normal 0 0 1
    outer loop
      vertex 12.8399 18.5251 16
      vertex 12.5533 18.3556 16
      vertex 20 13.0021 16
    endloop
  endfacet
  facet normal 0 0 1
    outer loop
      vertex 12.5533 18.3556 16
      vertex 12.2566 18.2044 16
      vertex 20 13.0021 16
    endloop
  endfacet
  facet normal 0 0 1
    outer loop
      vertex 12.2566 18.2044 16
      vertex 11.9511 18.0722 16
      vertex 20 13.0021 16
    endloop
  endfacet
  facet normal 0 0 1
    outer loop
      vertex 11.6378 17.9594 16
      vertex 11.3181 17.8665 16
      vertex 0 13.0021 16
    endloop
  endfacet
  facet normal 0 0 1
    outer loop
      vertex 4.9594 21.3622 16
      vertex 4.86651 21.6819 16
      vertex 0 30.5 16
    endloop
  endfacet
  facet normal 0 0 1
    outer loop
      vertex 10.6643 17.7418 16
      vertex 0 13.0021 16
      vertex 10.9931 17.7939 16
    endloop
  endfacet
  facet normal 0 0 1
    outer loop
      vertex 10.3328 17.7105 16
      vertex 0 13.0021 16
      vertex 10.6643 17.7418 16
    endloop
  endfacet
  facet normal 0 0 1
    outer loop
      vertex 10 17.7 16
      vertex 0 13.0021 16
      vertex 10.3328 17.7105 16
    endloop
  endfacet
  facet normal 0 0 1
    outer loop
      vertex 9.66721 17.7105 16
      vertex 0 13.0021 16
      vertex 10 17.7 16
    endloop
  endfacet
  facet normal 0 0 1
    outer loop
      vertex 9.33573 17.7418 16
      vertex 0 13.0021 16
      vertex 9.66721 17.7105 16
    endloop
  endfacet
  facet normal 0 0 1
    outer loop
      vertex 9.00688 17.7939 16
      vertex 0 13.0021 16
      vertex 9.33573 17.7418 16
    endloop
  endfacet
  facet normal 0 0 1
    outer loop
      vertex 8.68194 17.8665 16
      vertex 0 13.0021 16
      vertex 9.00688 17.7939 16
    endloop
  endfacet
  facet normal 0 0 1
    outer loop
      vertex 8.36221 17.9594 16
      vertex 0 13.0021 16
      vertex 8.68194 17.8665 16
    endloop
  endfacet
  facet normal 0 0 1
    outer loop
      vertex 8.04894 18.0722 16
      vertex 0 13.0021 16
      vertex 8.36221 17.9594 16
    endloop
  endfacet
  facet normal 0 0 1
    outer loop
      vertex 7.74337 18.2044 16
      vertex 0 13.0021 16
      vertex 8.04894 18.0722 16
    endloop
  endfacet
  facet normal 0 0 1
    outer loop
      vertex 7.44671 18.3556 16
      vertex 0 13.0021 16
      vertex 7.74337 18.2044 16
    endloop
  endfacet
  facet normal 0 0 1
    outer loop
      vertex 7.16012 18.5251 16
      vertex 0 13.0021 16
      vertex 7.44671 18.3556 16
    endloop
  endfacet
  facet normal 0 0 1
    outer loop
      vertex 6.88474 18.7122 16
      vertex 0 13.0021 16
      vertex 7.16012 18.5251 16
    endloop
  endfacet
  facet normal 0 0 1
    outer loop
      vertex 4.71046 22.6672 16
      vertex 4.7 23 16
      vertex 0 30.5 16
    endloop
  endfacet
  facet normal 0 0 1
    outer loop
      vertex 6.62165 18.9163 16
      vertex 0 13.0021 16
      vertex 6.88474 18.7122 16
    endloop
  endfacet
  facet normal 0 0 1
    outer loop
      vertex 6.3719 19.1365 16
      vertex 0 13.0021 16
      vertex 6.62165 18.9163 16
    endloop
  endfacet
  facet normal 0 0 1
    outer loop
      vertex 6.13647 19.3719 16
      vertex 0 13.0021 16
      vertex 6.3719 19.1365 16
    endloop
  endfacet
  facet normal 0 0 1
    outer loop
      vertex 5.91628 19.6217 16
      vertex 0 13.0021 16
      vertex 6.13647 19.3719 16
    endloop
  endfacet
  facet normal 0 0 1
    outer loop
      vertex 4.86651 21.6819 16
      vertex 4.79388 22.0069 16
      vertex 0 30.5 16
    endloop
  endfacet
  facet normal 0 0 1
    outer loop
      vertex 5.71221 19.8847 16
      vertex 0 13.0021 16
      vertex 5.91628 19.6217 16
    endloop
  endfacet
  facet normal 0 0 1
    outer loop
      vertex 5.52506 20.1601 16
      vertex 0 13.0021 16
      vertex 5.71221 19.8847 16
    endloop
  endfacet
  facet normal 0 0 1
    outer loop
      vertex 5.35557 20.4467 16
      vertex 0 13.0021 16
      vertex 5.52506 20.1601 16
    endloop
  endfacet
  facet normal 0 0 1
    outer loop
      vertex 0 30.5 16
      vertex 0 13.0021 16
      vertex 5.35557 20.4467 16
    endloop
  endfacet
  facet normal 0 0 1
    outer loop
      vertex 5.07218 21.0489 16
      vertex 4.9594 21.3622 16
      vertex 0 30.5 16
    endloop
  endfacet
  facet normal 0 0 1
    outer loop
      vertex 0 30.5 16
      vertex 5.35557 20.4467 16
      vertex 5.20442 20.7434 16
    endloop
  endfacet
  facet normal 0 0 1
    outer loop
      vertex 4.74179 22.3357 16
      vertex 4.71046 22.6672 16
      vertex 0 30.5 16
    endloop
  endfacet
  facet normal 0 0 1
    outer loop
      vertex 4.79388 22.0069 16
      vertex 4.74179 22.3357 16
      vertex 0 30.5 16
    endloop
  endfacet
  facet normal 0 0 1
    outer loop
      vertex 13.3783 18.9163 16
      vertex 13.1153 18.7122 16
      vertex 20 13.0021 16
    endloop
  endfacet
  facet normal 0 0 1
    outer loop
      vertex 11.3181 17.8665 16
      vertex 10.9931 17.7939 16
      vertex 0 13.0021 16
    endloop
  endfacet
  facet normal 0 0 1
    outer loop
      vertex 4.7 23 16
      vertex 4.7 30.5 16
      vertex 0 30.5 16
    endloop
  endfacet
  facet normal 0 -0.819152 0.573576
    outer loop
      vertex 17 6 6
      vertex 20 6 6
      vertex 20 13.0021 16
    endloop
  endfacet
  facet normal 0 -0.819152 0.573576
    outer loop
      vertex 3 6 6
      vertex 17 6 6
      vertex 20 13.0021 16
    endloop
  endfacet
  facet normal 0 -0.819152 0.573576
    outer loop
      vertex 0 13.0021 16
      vertex 3 6 6
      vertex 20 13.0021 16
    endloop
  endfacet
  facet normal 0 -0.819152 0.573576
    outer loop
      vertex 0 6 6
      vertex 3 6 6
      vertex 0 13.0021 16
    endloop
  endfacet
  facet normal 0 0 1
    outer loop
      vertex 17 3.5 6
      vertex 3 3.5 6
      vertex 7 1 6
    endloop
  endfacet
  facet normal 0 0 1
    outer loop
      vertex 3 3.5 6
      vertex 0 6 6
      vertex 6 0 6
    endloop
  endfacet
  facet normal 0 0 1
    outer loop
      vertex 6 0 6
      vertex 7 1 6
      vertex 3 3.5 6
    endloop
  endfacet
  facet normal 0 0 1
    outer loop
      vertex 14 0 6
      vertex 20 0 6
      vertex 13 1 6
    endloop
  endfacet
  facet normal 0 0 1
    outer loop
      vertex 20 0 6
      vertex 17 3.5 6
      vertex 13 1 6
    endloop
  endfacet
  facet normal 0 0 1
    outer loop
      vertex 20 0 6
      vertex 20 6 6
      vertex 17 3.5 6
    endloop
  endfacet
  facet normal 0 0 1
    outer loop
      vertex 3 6 6
      vertex 0 6 6
      vertex 3 3.5 6
    endloop
  endfacet
  facet normal 0 0 1
    outer loop
      vertex 0 6 6
      vertex 0 0 6
      vertex 6 0 6
    endloop
  endfacet
  facet normal 0 0 1
    outer loop
      vertex 17 3.5 6
      vertex 7 1 6
      vertex 13 1 6
    endloop
  endfacet
  facet normal 0 0 1
    outer loop
      vertex 17 6 6
      vertex 17 3.5 6
      vertex 20 6 6
    endloop
  endfacet
  facet normal 0.707107 -0.707107 0
    outer loop
      vertex 7 1 0
      vertex 7 1 6
      vertex 6 0 6
    endloop
  endfacet
  facet normal 0.707107 -0.707107 0
    outer loop
      vertex 6 0 0
      vertex 7 1 0
      vertex 6 0 6
    endloop
  endfacet
  facet normal 0 -1 0
    outer loop
      vertex 13 1 0
      vertex 13 1 6
      vertex 7 1 6
    endloop
  endfacet
  facet normal 0 -1 0
    outer loop
      vertex 7 1 0
      vertex 13 1 0
      vertex 7 1 6
    endloop
  endfacet
  facet normal -0.707107 -0.707107 0
    outer loop
      vertex 14 0 6
      vertex 13 1 6
      vertex 14 0 0
    endloop
  endfacet
  facet normal -0.707107 -0.707107 0
    outer loop
      vertex 14 0 0
      vertex 13 1 6
      vertex 13 1 0
    endloop
  endfacet
  facet normal 0 -1 0
    outer loop
      vertex 14 0 6
      vertex 14 0 0
      vertex 20 0 0
    endloop
  endfacet
  facet normal 0 -1 0
    outer loop
      vertex 20 0 6
      vertex 14 0 6
      vertex 20 0 0
    endloop
  endfacet
  facet normal 1 0 0
    outer loop
      vertex 20 0 6
      vertex 20 0 0
      vertex 20 30.5 0
    endloop
  endfacet
  facet normal 1 0 0
    outer loop
      vertex 20 6 6
      vertex 20 0 6
      vertex 20 30.5 0
    endloop
  endfacet
  facet normal 1 0 0
    outer loop
      vertex 20 30.5 16
      vertex 20 6 6
      vertex 20 30.5 0
    endloop
  endfacet
  facet normal 1 0 0
    outer loop
      vertex 20 13.0021 16
      vertex 20 6 6
      vertex 20 30.5 16
    endloop
  endfacet
  facet normal 0 1 0
    outer loop
      vertex 15.3 30.5 0
      vertex 15.3 30.5 0.488388
      vertex 20 30.5 0
    endloop
  endfacet
  facet normal 0 1 0
    outer loop
      vertex 20 30.5 0
      vertex 15.3 30.5 0.488388
      vertex 15.3 30.5 1.34419
    endloop
  endfacet
  facet normal 0 1 0
    outer loop
      vertex 20 30.5 0
      vertex 15.3 30.5 1.34419
      vertex 15.3 30.5 16
    endloop
  endfacet
  facet normal 0 1 0
    outer loop
      vertex 20 30.5 0
      vertex 15.3 30.5 16
      vertex 20 30.5 16
    endloop
  endfacet
  facet normal -1 6.12303e-017 0
    outer loop
      vertex 15.3 30.5 0.488388
      vertex 15.3 30.5 0
      vertex 15.3 30.1484 0
    endloop
  endfacet
  facet normal -1 4.96929e-017 -3.57738e-017
    outer loop
      vertex 15.3 30.5 1.34419
      vertex 15.3 30.5 0.488388
      vertex 15.3 23 3.76301
    endloop
  endfacet
  facet normal -1 4.96929e-017 -3.57738e-017
    outer loop
      vertex 15.3 23 3.76301
      vertex 15.3 30.5 0.488388
      vertex 15.3 30.1484 0
    endloop
  endfacet
  facet normal -1 4.96929e-017 -3.57738e-017
    outer loop
      vertex 15.3 23 3.76301
      vertex 15.3 30.1484 0
      vertex 15.3 20.291 0
    endloop
  endfacet
  facet normal -0.999507 0.0254913 -0.0183511
    outer loop
      vertex 15.3 23 3.76301
      vertex 15.3 20.291 0
      vertex 15.2895 22.6672 3.87034
    endloop
  endfacet
  facet normal -0.999507 0.0254913 -0.0183511
    outer loop
      vertex 15.2895 22.6672 3.87034
      vertex 15.3 20.291 0
      vertex 15.2895 19.881 0
    endloop
  endfacet
  facet normal -0.995562 0.0763766 -0.0549833
    outer loop
      vertex 15.2895 22.6672 3.87034
      vertex 15.2895 19.881 0
      vertex 15.2582 22.3357 3.97724
    endloop
  endfacet
  facet normal -0.995562 0.0763766 -0.0549833
    outer loop
      vertex 15.2582 22.3357 3.97724
      vertex 15.2895 19.881 0
      vertex 15.2582 19.4725 0
    endloop
  endfacet
  facet normal -0.987688 0.126959 -0.0913976
    outer loop
      vertex 15.2582 22.3357 3.97724
      vertex 15.2582 19.4725 0
      vertex 15.2061 22.0069 4.0833
    endloop
  endfacet
  facet normal -0.987688 0.126959 -0.0913976
    outer loop
      vertex 15.2061 22.0069 4.0833
      vertex 15.2582 19.4725 0
      vertex 15.2061 19.0673 0
    endloop
  endfacet
  facet normal -0.975917 0.177038 -0.127449
    outer loop
      vertex 15.2061 22.0069 4.0833
      vertex 15.2061 19.0673 0
      vertex 15.1335 21.6819 4.18809
    endloop
  endfacet
  facet normal -0.975917 0.177038 -0.127449
    outer loop
      vertex 15.1335 21.6819 4.18809
      vertex 15.2061 19.0673 0
      vertex 15.1335 18.6669 0
    endloop
  endfacet
  facet normal -0.960294 0.226421 -0.163
    outer loop
      vertex 15.1335 21.6819 4.18809
      vertex 15.1335 18.6669 0
      vertex 15.0406 21.3622 4.29121
    endloop
  endfacet
  facet normal -0.960294 0.226421 -0.163
    outer loop
      vertex 15.0406 21.3622 4.29121
      vertex 15.1335 18.6669 0
      vertex 15.0406 18.273 0
    endloop
  endfacet
  facet normal -0.94088 0.274913 -0.197909
    outer loop
      vertex 15.0406 21.3622 4.29121
      vertex 15.0406 18.273 0
      vertex 14.9278 21.0489 4.39224
    endloop
  endfacet
  facet normal -0.94088 0.274913 -0.197909
    outer loop
      vertex 14.9278 21.0489 4.39224
      vertex 15.0406 18.273 0
      vertex 14.9278 17.887 0
    endloop
  endfacet
  facet normal -0.917755 0.322315 -0.232034
    outer loop
      vertex 14.9278 21.0489 4.39224
      vertex 14.9278 17.887 0
      vertex 14.7956 20.7434 4.49079
    endloop
  endfacet
  facet normal -0.917755 0.322315 -0.232034
    outer loop
      vertex 14.7956 20.7434 4.49079
      vertex 14.9278 17.887 0
      vertex 14.7956 17.5105 0
    endloop
  endfacet
  facet normal -0.891006 0.368447 -0.265244
    outer loop
      vertex 14.7956 20.7434 4.49079
      vertex 14.7956 17.5105 0
      vertex 14.6444 20.4467 4.58647
    endloop
  endfacet
  facet normal -0.891006 0.368447 -0.265244
    outer loop
      vertex 14.6444 20.4467 4.58647
      vertex 14.7956 17.5105 0
      vertex 14.6444 17.1449 0
    endloop
  endfacet
  facet normal -0.860743 0.413124 -0.297406
    outer loop
      vertex 14.6444 20.4467 4.58647
      vertex 14.6444 17.1449 0
      vertex 14.4749 20.1601 4.6789
    endloop
  endfacet
  facet normal -0.860743 0.413124 -0.297406
    outer loop
      vertex 14.4749 20.1601 4.6789
      vertex 14.6444 17.1449 0
      vertex 14.4749 16.7918 0
    endloop
  endfacet
  facet normal -0.827081 0.456172 -0.328397
    outer loop
      vertex 14.4749 20.1601 4.6789
      vertex 14.4749 16.7918 0
      vertex 14.2878 19.8847 4.76771
    endloop
  endfacet
  facet normal -0.827081 0.456172 -0.328397
    outer loop
      vertex 14.2878 19.8847 4.76771
      vertex 14.4749 16.7918 0
      vertex 14.2878 16.4525 0
    endloop
  endfacet
  facet normal -0.790154 0.49742 -0.358091
    outer loop
      vertex 14.2878 19.8847 4.76771
      vertex 14.2878 16.4525 0
      vertex 14.0837 19.6217 4.85256
    endloop
  endfacet
  facet normal -0.790154 0.49742 -0.358091
    outer loop
      vertex 14.0837 19.6217 4.85256
      vertex 14.2878 16.4525 0
      vertex 14.0837 16.1283 0
    endloop
  endfacet
  facet normal -0.750112 0.536702 -0.38637
    outer loop
      vertex 14.0837 19.6217 4.85256
      vertex 14.0837 16.1283 0
      vertex 13.8635 19.3719 4.9331
    endloop
  endfacet
  facet normal -0.750112 0.536702 -0.38637
    outer loop
      vertex 13.8635 19.3719 4.9331
      vertex 14.0837 16.1283 0
      vertex 13.8635 15.8206 0
    endloop
  endfacet
  facet normal -0.707107 0.573869 -0.413127
    outer loop
      vertex 13.8635 19.3719 4.9331
      vertex 13.8635 15.8206 0
      vertex 13.6281 19.1365 5.00903
    endloop
  endfacet
  facet normal -0.707107 0.573869 -0.413127
    outer loop
      vertex 13.6281 19.1365 5.00903
      vertex 13.8635 15.8206 0
      vertex 13.6281 15.5305 0
    endloop
  endfacet
  facet normal -0.66131 0.608772 -0.438253
    outer loop
      vertex 13.6281 19.1365 5.00903
      vertex 13.6281 15.5305 0
      vertex 13.3783 18.9163 5.08005
    endloop
  endfacet
  facet normal -0.66131 0.608772 -0.438253
    outer loop
      vertex 13.3783 18.9163 5.08005
      vertex 13.6281 15.5305 0
      vertex 13.3783 15.2592 0
    endloop
  endfacet
  facet normal -0.612908 0.641269 -0.461647
    outer loop
      vertex 13.3783 18.9163 5.08005
      vertex 13.3783 15.2592 0
      vertex 13.1153 18.7122 5.14586
    endloop
  endfacet
  facet normal -0.612908 0.641269 -0.461647
    outer loop
      vertex 13.1153 18.7122 5.14586
      vertex 13.3783 15.2592 0
      vertex 13.1153 15.0077 0
    endloop
  endfacet
  facet normal -0.562083 0.671237 -0.483222
    outer loop
      vertex 13.1153 18.7122 5.14586
      vertex 13.1153 15.0077 0
      vertex 12.8399 18.5251 5.20622
    endloop
  endfacet
  facet normal -0.562083 0.671237 -0.483222
    outer loop
      vertex 12.8399 18.5251 5.20622
      vertex 13.1153 15.0077 0
      vertex 12.8399 14.7771 0
    endloop
  endfacet
  facet normal -0.50904 0.698557 -0.502889
    outer loop
      vertex 12.8399 18.5251 5.20622
      vertex 12.8399 14.7771 0
      vertex 12.5533 18.3556 5.26088
    endloop
  endfacet
  facet normal -0.50904 0.698557 -0.502889
    outer loop
      vertex 12.5533 18.3556 5.26088
      vertex 12.8399 14.7771 0
      vertex 12.5533 14.5683 0
    endloop
  endfacet
  facet normal -0.453991 0.723118 -0.52057
    outer loop
      vertex 12.5533 18.3556 5.26088
      vertex 12.5533 14.5683 0
      vertex 12.2566 18.2044 5.30963
    endloop
  endfacet
  facet normal -0.453991 0.723118 -0.52057
    outer loop
      vertex 12.2566 18.2044 5.30963
      vertex 12.5533 14.5683 0
      vertex 12.2566 14.382 0
    endloop
  endfacet
  facet normal -0.397148 0.744826 -0.536198
    outer loop
      vertex 12.2566 18.2044 5.30963
      vertex 12.2566 14.382 0
      vertex 11.9511 18.0722 5.35227
    endloop
  endfacet
  facet normal -0.397148 0.744826 -0.536198
    outer loop
      vertex 11.9511 18.0722 5.35227
      vertex 12.2566 14.382 0
      vertex 11.9511 14.2191 0
    endloop
  endfacet
  facet normal -0.33874 0.763594 -0.549709
    outer loop
      vertex 11.9511 18.0722 5.35227
      vertex 11.9511 14.2191 0
      vertex 11.6378 17.9594 5.38865
    endloop
  endfacet
  facet normal -0.33874 0.763594 -0.549709
    outer loop
      vertex 11.6378 17.9594 5.38865
      vertex 11.9511 14.2191 0
      vertex 11.6378 14.0801 0
    endloop
  endfacet
  facet normal -0.27899 0.77935 -0.561051
    outer loop
      vertex 11.6378 17.9594 5.38865
      vertex 11.6378 14.0801 0
      vertex 11.3181 17.8665 5.41861
    endloop
  endfacet
  facet normal -0.27899 0.77935 -0.561051
    outer loop
      vertex 11.3181 17.8665 5.41861
      vertex 11.6378 14.0801 0
      vertex 11.3181 13.9657 0
    endloop
  endfacet
  facet normal -0.218142 0.792029 -0.570179
    outer loop
      vertex 11.3181 17.8665 5.41861
      vertex 11.3181 13.9657 0
      vertex 10.9931 17.7939 5.44203
    endloop
  endfacet
  facet normal -0.218142 0.792029 -0.570179
    outer loop
      vertex 10.9931 17.7939 5.44203
      vertex 11.3181 13.9657 0
      vertex 10.9931 13.8762 0
    endloop
  endfacet
  facet normal -0.156436 0.801582 -0.577056
    outer loop
      vertex 10.9931 17.7939 5.44203
      vertex 10.9931 13.8762 0
      vertex 10.6643 17.7418 5.45883
    endloop
  endfacet
  facet normal -0.156436 0.801582 -0.577056
    outer loop
      vertex 10.6643 17.7418 5.45883
      vertex 10.9931 13.8762 0
      vertex 10.6643 13.812 0
    endloop
  endfacet
  facet normal -0.0941092 0.807972 -0.581657
    outer loop
      vertex 10.6643 17.7418 5.45883
      vertex 10.6643 13.812 0
      vertex 10.3328 17.7105 5.46893
    endloop
  endfacet
  facet normal -0.0941092 0.807972 -0.581657
    outer loop
      vertex 10.3328 17.7105 5.46893
      vertex 10.6643 13.812 0
      vertex 10.3328 13.7734 0
    endloop
  endfacet
  facet normal -0.0314097 0.811174 -0.583961
    outer loop
      vertex 10.3328 17.7105 5.46893
      vertex 10.3328 13.7734 0
      vertex 10 17.7 5.47231
    endloop
  endfacet
  facet normal -0.0314097 0.811174 -0.583961
    outer loop
      vertex 10 17.7 5.47231
      vertex 10.3328 13.7734 0
      vertex 10 13.7605 0
    endloop
  endfacet
  facet normal 0.0314097 0.811174 -0.583961
    outer loop
      vertex 10 17.7 5.47231
      vertex 10 13.7605 0
      vertex 9.66721 17.7105 5.46893
    endloop
  endfacet
  facet normal 0.0314097 0.811174 -0.583961
    outer loop
      vertex 9.66721 17.7105 5.46893
      vertex 10 13.7605 0
      vertex 9.66721 13.7734 0
    endloop
  endfacet
  facet normal 0.0941092 0.807972 -0.581657
    outer loop
      vertex 9.66721 17.7105 5.46893
      vertex 9.66721 13.7734 0
      vertex 9.33573 17.7418 5.45883
    endloop
  endfacet
  facet normal 0.0941092 0.807972 -0.581657
    outer loop
      vertex 9.33573 17.7418 5.45883
      vertex 9.66721 13.7734 0
      vertex 9.33573 13.812 0
    endloop
  endfacet
  facet normal 0.156436 0.801582 -0.577056
    outer loop
      vertex 9.33573 17.7418 5.45883
      vertex 9.33573 13.812 0
      vertex 9.00688 17.7939 5.44203
    endloop
  endfacet
  facet normal 0.156436 0.801582 -0.577056
    outer loop
      vertex 9.00688 17.7939 5.44203
      vertex 9.33573 13.812 0
      vertex 9.00688 13.8762 0
    endloop
  endfacet
  facet normal 0.218142 0.792029 -0.570179
    outer loop
      vertex 9.00688 17.7939 5.44203
      vertex 9.00688 13.8762 0
      vertex 8.68194 17.8665 5.41861
    endloop
  endfacet
  facet normal 0.218142 0.792029 -0.570179
    outer loop
      vertex 8.68194 17.8665 5.41861
      vertex 9.00688 13.8762 0
      vertex 8.68194 13.9657 0
    endloop
  endfacet
  facet normal 0.27899 0.77935 -0.561051
    outer loop
      vertex 8.68194 17.8665 5.41861
      vertex 8.68194 13.9657 0
      vertex 8.36221 17.9594 5.38865
    endloop
  endfacet
  facet normal 0.27899 0.77935 -0.561051
    outer loop
      vertex 8.36221 17.9594 5.38865
      vertex 8.68194 13.9657 0
      vertex 8.36221 14.0801 0
    endloop
  endfacet
  facet normal 0.33874 0.763594 -0.549709
    outer loop
      vertex 8.36221 17.9594 5.38865
      vertex 8.36221 14.0801 0
      vertex 8.04894 18.0722 5.35227
    endloop
  endfacet
  facet normal 0.33874 0.763594 -0.549709
    outer loop
      vertex 8.04894 18.0722 5.35227
      vertex 8.36221 14.0801 0
      vertex 8.04894 14.2191 0
    endloop
  endfacet
  facet normal 0.397148 0.744826 -0.536198
    outer loop
      vertex 8.04894 18.0722 5.35227
      vertex 8.04894 14.2191 0
      vertex 7.74337 18.2044 5.30963
    endloop
  endfacet
  facet normal 0.397148 0.744826 -0.536198
    outer loop
      vertex 7.74337 18.2044 5.30963
      vertex 8.04894 14.2191 0
      vertex 7.74337 14.382 0
    endloop
  endfacet
  facet normal 0.453991 0.723118 -0.52057
    outer loop
      vertex 7.74337 18.2044 5.30963
      vertex 7.74337 14.382 0
      vertex 7.44671 18.3556 5.26088
    endloop
  endfacet
  facet normal 0.453991 0.723118 -0.52057
    outer loop
      vertex 7.44671 18.3556 5.26088
      vertex 7.74337 14.382 0
      vertex 7.44671 14.5683 0
    endloop
  endfacet
  facet normal 0.50904 0.698557 -0.502889
    outer loop
      vertex 7.44671 18.3556 5.26088
      vertex 7.44671 14.5683 0
      vertex 7.16012 18.5251 5.20622
    endloop
  endfacet
  facet normal 0.50904 0.698557 -0.502889
    outer loop
      vertex 7.16012 18.5251 5.20622
      vertex 7.44671 14.5683 0
      vertex 7.16012 14.7771 0
    endloop
  endfacet
  facet normal 0.562083 0.671237 -0.483222
    outer loop
      vertex 7.16012 18.5251 5.20622
      vertex 7.16012 14.7771 0
      vertex 6.88474 18.7122 5.14586
    endloop
  endfacet
  facet normal 0.562083 0.671237 -0.483222
    outer loop
      vertex 6.88474 18.7122 5.14586
      vertex 7.16012 14.7771 0
      vertex 6.88474 15.0077 0
    endloop
  endfacet
  facet normal 0.612908 0.641269 -0.461647
    outer loop
      vertex 6.88474 18.7122 5.14586
      vertex 6.88474 15.0077 0
      vertex 6.62165 18.9163 5.08005
    endloop
  endfacet
  facet normal 0.612908 0.641269 -0.461647
    outer loop
      vertex 6.62165 18.9163 5.08005
      vertex 6.88474 15.0077 0
      vertex 6.62165 15.2592 0
    endloop
  endfacet
  facet normal 0.66131 0.608772 -0.438253
    outer loop
      vertex 6.3719 19.1365 5.00903
      vertex 6.62165 18.9163 5.08005
      vertex 6.62165 15.2592 0
    endloop
  endfacet
  facet normal 0.66131 0.608772 -0.438253
    outer loop
      vertex 6.3719 15.5305 0
      vertex 6.3719 19.1365 5.00903
      vertex 6.62165 15.2592 0
    endloop
  endfacet
  facet normal 0.707107 0.573869 -0.413127
    outer loop
      vertex 6.13647 19.3719 4.9331
      vertex 6.3719 19.1365 5.00903
      vertex 6.3719 15.5305 0
    endloop
  endfacet
  facet normal 0.707107 0.573869 -0.413127
    outer loop
      vertex 6.13647 15.8206 0
      vertex 6.13647 19.3719 4.9331
      vertex 6.3719 15.5305 0
    endloop
  endfacet
  facet normal 0.750112 0.536702 -0.38637
    outer loop
      vertex 5.91628 19.6217 4.85256
      vertex 6.13647 19.3719 4.9331
      vertex 6.13647 15.8206 0
    endloop
  endfacet
  facet normal 0.750112 0.536702 -0.38637
    outer loop
      vertex 5.91628 16.1283 0
      vertex 5.91628 19.6217 4.85256
      vertex 6.13647 15.8206 0
    endloop
  endfacet
  facet normal 0.790154 0.49742 -0.358091
    outer loop
      vertex 5.71221 19.8847 4.76771
      vertex 5.91628 19.6217 4.85256
      vertex 5.91628 16.1283 0
    endloop
  endfacet
  facet normal 0.790154 0.49742 -0.358091
    outer loop
      vertex 5.71221 16.4525 0
      vertex 5.71221 19.8847 4.76771
      vertex 5.91628 16.1283 0
    endloop
  endfacet
  facet normal 0.827081 0.456172 -0.328397
    outer loop
      vertex 5.52506 20.1601 4.6789
      vertex 5.71221 19.8847 4.76771
      vertex 5.71221 16.4525 0
    endloop
  endfacet
  facet normal 0.827081 0.456172 -0.328397
    outer loop
      vertex 5.52506 16.7918 0
      vertex 5.52506 20.1601 4.6789
      vertex 5.71221 16.4525 0
    endloop
  endfacet
  facet normal 0.860743 0.413124 -0.297406
    outer loop
      vertex 5.35557 20.4467 4.58647
      vertex 5.52506 20.1601 4.6789
      vertex 5.52506 16.7918 0
    endloop
  endfacet
  facet normal 0.860743 0.413124 -0.297406
    outer loop
      vertex 5.35557 17.1449 0
      vertex 5.35557 20.4467 4.58647
      vertex 5.52506 16.7918 0
    endloop
  endfacet
  facet normal 0.891006 0.368447 -0.265244
    outer loop
      vertex 5.20442 20.7434 4.49079
      vertex 5.35557 20.4467 4.58647
      vertex 5.35557 17.1449 0
    endloop
  endfacet
  facet normal 0.891006 0.368447 -0.265244
    outer loop
      vertex 5.20442 17.5105 0
      vertex 5.20442 20.7434 4.49079
      vertex 5.35557 17.1449 0
    endloop
  endfacet
  facet normal 0.917755 0.322315 -0.232034
    outer loop
      vertex 5.07218 21.0489 4.39224
      vertex 5.20442 20.7434 4.49079
      vertex 5.20442 17.5105 0
    endloop
  endfacet
  facet normal 0.917755 0.322315 -0.232034
    outer loop
      vertex 5.07218 17.887 0
      vertex 5.07218 21.0489 4.39224
      vertex 5.20442 17.5105 0
    endloop
  endfacet
  facet normal 0.94088 0.274913 -0.197909
    outer loop
      vertex 4.9594 21.3622 4.29121
      vertex 5.07218 21.0489 4.39224
      vertex 5.07218 17.887 0
    endloop
  endfacet
  facet normal 0.94088 0.274913 -0.197909
    outer loop
      vertex 4.9594 18.273 0
      vertex 4.9594 21.3622 4.29121
      vertex 5.07218 17.887 0
    endloop
  endfacet
  facet normal 0.960294 0.226421 -0.163
    outer loop
      vertex 4.86651 21.6819 4.18809
      vertex 4.9594 21.3622 4.29121
      vertex 4.9594 18.273 0
    endloop
  endfacet
  facet normal 0.960294 0.226421 -0.163
    outer loop
      vertex 4.86651 18.6669 0
      vertex 4.86651 21.6819 4.18809
      vertex 4.9594 18.273 0
    endloop
  endfacet
  facet normal 0.975917 0.177038 -0.127449
    outer loop
      vertex 4.79388 22.0069 4.0833
      vertex 4.86651 21.6819 4.18809
      vertex 4.86651 18.6669 0
    endloop
  endfacet
  facet normal 0.975917 0.177038 -0.127449
    outer loop
      vertex 4.79388 19.0673 0
      vertex 4.79388 22.0069 4.0833
      vertex 4.86651 18.6669 0
    endloop
  endfacet
  facet normal 0.987688 0.126959 -0.0913976
    outer loop
      vertex 4.74179 22.3357 3.97724
      vertex 4.79388 22.0069 4.0833
      vertex 4.79388 19.0673 0
    endloop
  endfacet
  facet normal 0.987688 0.126959 -0.0913976
    outer loop
      vertex 4.74179 19.4725 0
      vertex 4.74179 22.3357 3.97724
      vertex 4.79388 19.0673 0
    endloop
  endfacet
  facet normal 0.995562 0.0763766 -0.0549833
    outer loop
      vertex 4.71046 22.6672 3.87034
      vertex 4.74179 22.3357 3.97724
      vertex 4.74179 19.4725 0
    endloop
  endfacet
  facet normal 0.995562 0.0763766 -0.0549833
    outer loop
      vertex 4.71046 19.881 0
      vertex 4.71046 22.6672 3.87034
      vertex 4.74179 19.4725 0
    endloop
  endfacet
  facet normal 0.999507 0.0254913 -0.0183511
    outer loop
      vertex 4.7 23 3.76301
      vertex 4.71046 22.6672 3.87034
      vertex 4.71046 19.881 0
    endloop
  endfacet
  facet normal 0.999507 0.0254913 -0.0183511
    outer loop
      vertex 4.7 20.291 0
      vertex 4.7 23 3.76301
      vertex 4.71046 19.881 0
    endloop
  endfacet
  facet normal 1 -4.96929e-017 3.57738e-017
    outer loop
      vertex 4.7 23 0
      vertex 4.7 23 3.47793
      vertex 4.7 23 3.76301
    endloop
  endfacet
  facet normal 1 -4.96929e-017 3.57738e-017
    outer loop
      vertex 4.7 20.291 0
      vertex 4.7 23 0
      vertex 4.7 23 3.76301
    endloop
  endfacet
  facet normal 6.12303e-017 1 0
    outer loop
      vertex 4.7 23 3.47793
      vertex 4.7 23 0
      vertex 4.7 23 3.76301
    endloop
  endfacet
  facet normal 1 -6.12303e-017 0
    outer loop
      vertex 4.7 30.5 0
      vertex 4.7 30.5 1.34419
      vertex 4.7 23 3.76301
    endloop
  endfacet
  facet normal 1 -6.12303e-017 0
    outer loop
      vertex 4.7 23 0
      vertex 4.7 30.5 0
      vertex 4.7 23 3.76301
    endloop
  endfacet
  facet normal 1 0 0
    outer loop
      vertex 3 6 0
      vertex 3 6 6
      vertex 3 3.5 6
    endloop
  endfacet
  facet normal 1 0 0
    outer loop
      vertex 3 3.5 0
      vertex 3 6 0
      vertex 3 3.5 6
    endloop
  endfacet
  facet normal 0 -1 0
    outer loop
      vertex 17 6 0
      vertex 17 6 6
      vertex 3 6 6
    endloop
  endfacet
  facet normal 0 -1 0
    outer loop
      vertex 3 6 0
      vertex 17 6 0
      vertex 3 6 6
    endloop
  endfacet
  facet normal -1 0 0
    outer loop
      vertex 17 6 6
      vertex 17 6 0
      vertex 17 3.5 6
    endloop
  endfacet
  facet normal -1 0 0
    outer loop
      vertex 17 3.5 6
      vertex 17 6 0
      vertex 17 3.5 0
    endloop
  endfacet
  facet normal 0 1 0
    outer loop
      vertex 17 3.5 6
      vertex 17 3.5 0
      vertex 3 3.5 6
    endloop
  endfacet
  facet normal 0 1 0
    outer loop
      vertex 3 3.5 6
      vertex 17 3.5 0
      vertex 3 3.5 0
    endloop
  endfacet
  facet normal 1 -4.96929e-017 3.57738e-017
    outer loop
      vertex 4.7 30.5 1.34419
      vertex 4.7 30.5 14.1812
      vertex 4.7 23 3.76301
    endloop
  endfacet
  facet normal 6.12303e-017 0.811574 -0.58425
    outer loop
      vertex 4.7 30.5 14.1812
      vertex 4.7 23.1666 3.99436
      vertex 4.7 23 3.76301
    endloop
  endfacet
  facet normal 1 -6.12303e-017 0
    outer loop
      vertex 4.7 23.1666 3.99436
      vertex 4.7 30.5 14.1812
      vertex 4.7 30.5 16
    endloop
  endfacet
  facet normal 1 -6.12303e-017 0
    outer loop
      vertex 4.7 23 3.76301
      vertex 4.7 23.1666 3.99436
      vertex 4.7 23 16
    endloop
  endfacet
  facet normal 1 -6.12303e-017 0
    outer loop
      vertex 4.7 23 16
      vertex 4.7 23.1666 3.99436
      vertex 4.7 30.5 16
    endloop
  endfacet
  facet normal 0.999507 0.0314097 0
    outer loop
      vertex 4.7 23 16
      vertex 4.71046 22.6672 16
      vertex 4.71046 22.6672 3.87034
    endloop
  endfacet
  facet normal 0.999507 0.0314097 0
    outer loop
      vertex 4.7 23 3.76301
      vertex 4.7 23 16
      vertex 4.71046 22.6672 3.87034
    endloop
  endfacet
  facet normal 0.995562 0.0941092 0
    outer loop
      vertex 4.71046 22.6672 16
      vertex 4.74179 22.3357 16
      vertex 4.74179 22.3357 3.97724
    endloop
  endfacet
  facet normal 0.995562 0.0941092 0
    outer loop
      vertex 4.71046 22.6672 3.87034
      vertex 4.71046 22.6672 16
      vertex 4.74179 22.3357 3.97724
    endloop
  endfacet
  facet normal 0.987688 0.156436 0
    outer loop
      vertex 4.74179 22.3357 16
      vertex 4.79388 22.0069 16
      vertex 4.79388 22.0069 4.0833
    endloop
  endfacet
  facet normal 0.987688 0.156436 0
    outer loop
      vertex 4.74179 22.3357 3.97724
      vertex 4.74179 22.3357 16
      vertex 4.79388 22.0069 4.0833
    endloop
  endfacet
  facet normal 0.975917 0.218142 0
    outer loop
      vertex 4.79388 22.0069 16
      vertex 4.86651 21.6819 16
      vertex 4.86651 21.6819 4.18809
    endloop
  endfacet
  facet normal 0.975917 0.218142 0
    outer loop
      vertex 4.79388 22.0069 4.0833
      vertex 4.79388 22.0069 16
      vertex 4.86651 21.6819 4.18809
    endloop
  endfacet
  facet normal 0.960294 0.27899 0
    outer loop
      vertex 4.86651 21.6819 16
      vertex 4.9594 21.3622 16
      vertex 4.9594 21.3622 4.29121
    endloop
  endfacet
  facet normal 0.960294 0.27899 0
    outer loop
      vertex 4.86651 21.6819 4.18809
      vertex 4.86651 21.6819 16
      vertex 4.9594 21.3622 4.29121
    endloop
  endfacet
  facet normal 0.94088 0.33874 0
    outer loop
      vertex 4.9594 21.3622 16
      vertex 5.07218 21.0489 16
      vertex 5.07218 21.0489 4.39224
    endloop
  endfacet
  facet normal 0.94088 0.33874 0
    outer loop
      vertex 4.9594 21.3622 4.29121
      vertex 4.9594 21.3622 16
      vertex 5.07218 21.0489 4.39224
    endloop
  endfacet
  facet normal 0.917755 0.397148 0
    outer loop
      vertex 5.07218 21.0489 16
      vertex 5.20442 20.7434 16
      vertex 5.20442 20.7434 4.49079
    endloop
  endfacet
  facet normal 0.917755 0.397148 0
    outer loop
      vertex 5.07218 21.0489 4.39224
      vertex 5.07218 21.0489 16
      vertex 5.20442 20.7434 4.49079
    endloop
  endfacet
  facet normal 0.891006 0.453991 0
    outer loop
      vertex 5.20442 20.7434 16
      vertex 5.35557 20.4467 16
      vertex 5.35557 20.4467 4.58647
    endloop
  endfacet
  facet normal 0.891006 0.453991 0
    outer loop
      vertex 5.20442 20.7434 4.49079
      vertex 5.20442 20.7434 16
      vertex 5.35557 20.4467 4.58647
    endloop
  endfacet
  facet normal 0.860743 0.50904 0
    outer loop
      vertex 5.35557 20.4467 16
      vertex 5.52506 20.1601 16
      vertex 5.52506 20.1601 4.6789
    endloop
  endfacet
  facet normal 0.860743 0.50904 0
    outer loop
      vertex 5.35557 20.4467 4.58647
      vertex 5.35557 20.4467 16
      vertex 5.52506 20.1601 4.6789
    endloop
  endfacet
  facet normal 0.827081 0.562083 0
    outer loop
      vertex 5.52506 20.1601 16
      vertex 5.71221 19.8847 16
      vertex 5.71221 19.8847 4.76771
    endloop
  endfacet
  facet normal 0.827081 0.562083 0
    outer loop
      vertex 5.52506 20.1601 4.6789
      vertex 5.52506 20.1601 16
      vertex 5.71221 19.8847 4.76771
    endloop
  endfacet
  facet normal 0.790154 0.612908 0
    outer loop
      vertex 5.71221 19.8847 16
      vertex 5.91628 19.6217 16
      vertex 5.91628 19.6217 4.85256
    endloop
  endfacet
  facet normal 0.790154 0.612908 0
    outer loop
      vertex 5.71221 19.8847 4.76771
      vertex 5.71221 19.8847 16
      vertex 5.91628 19.6217 4.85256
    endloop
  endfacet
  facet normal 0.750112 0.66131 0
    outer loop
      vertex 5.91628 19.6217 16
      vertex 6.13647 19.3719 16
      vertex 6.13647 19.3719 4.9331
    endloop
  endfacet
  facet normal 0.750112 0.66131 0
    outer loop
      vertex 5.91628 19.6217 4.85256
      vertex 5.91628 19.6217 16
      vertex 6.13647 19.3719 4.9331
    endloop
  endfacet
  facet normal 0.707107 0.707107 0
    outer loop
      vertex 6.13647 19.3719 16
      vertex 6.3719 19.1365 16
      vertex 6.3719 19.1365 5.00903
    endloop
  endfacet
  facet normal 0.707107 0.707107 0
    outer loop
      vertex 6.13647 19.3719 4.9331
      vertex 6.13647 19.3719 16
      vertex 6.3719 19.1365 5.00903
    endloop
  endfacet
  facet normal 0.66131 0.750112 0
    outer loop
      vertex 6.62165 18.9163 16
      vertex 6.62165 18.9163 5.08005
      vertex 6.3719 19.1365 16
    endloop
  endfacet
  facet normal 0.66131 0.750112 0
    outer loop
      vertex 6.3719 19.1365 16
      vertex 6.62165 18.9163 5.08005
      vertex 6.3719 19.1365 5.00903
    endloop
  endfacet
  facet normal 0.612908 0.790154 0
    outer loop
      vertex 6.88474 18.7122 16
      vertex 6.88474 18.7122 5.14586
      vertex 6.62165 18.9163 16
    endloop
  endfacet
  facet normal 0.612908 0.790154 0
    outer loop
      vertex 6.62165 18.9163 16
      vertex 6.88474 18.7122 5.14586
      vertex 6.62165 18.9163 5.08005
    endloop
  endfacet
  facet normal 0.562083 0.827081 0
    outer loop
      vertex 7.16012 18.5251 16
      vertex 7.16012 18.5251 5.20622
      vertex 6.88474 18.7122 16
    endloop
  endfacet
  facet normal 0.562083 0.827081 0
    outer loop
      vertex 6.88474 18.7122 16
      vertex 7.16012 18.5251 5.20622
      vertex 6.88474 18.7122 5.14586
    endloop
  endfacet
  facet normal 0.50904 0.860743 0
    outer loop
      vertex 7.44671 18.3556 16
      vertex 7.44671 18.3556 5.26088
      vertex 7.16012 18.5251 16
    endloop
  endfacet
  facet normal 0.50904 0.860743 0
    outer loop
      vertex 7.16012 18.5251 16
      vertex 7.44671 18.3556 5.26088
      vertex 7.16012 18.5251 5.20622
    endloop
  endfacet
  facet normal 0.453991 0.891006 0
    outer loop
      vertex 7.74337 18.2044 16
      vertex 7.74337 18.2044 5.30963
      vertex 7.44671 18.3556 16
    endloop
  endfacet
  facet normal 0.453991 0.891006 0
    outer loop
      vertex 7.44671 18.3556 16
      vertex 7.74337 18.2044 5.30963
      vertex 7.44671 18.3556 5.26088
    endloop
  endfacet
  facet normal 0.397148 0.917755 0
    outer loop
      vertex 8.04894 18.0722 16
      vertex 8.04894 18.0722 5.35227
      vertex 7.74337 18.2044 16
    endloop
  endfacet
  facet normal 0.397148 0.917755 0
    outer loop
      vertex 7.74337 18.2044 16
      vertex 8.04894 18.0722 5.35227
      vertex 7.74337 18.2044 5.30963
    endloop
  endfacet
  facet normal 0.33874 0.94088 0
    outer loop
      vertex 8.36221 17.9594 16
      vertex 8.36221 17.9594 5.38865
      vertex 8.04894 18.0722 16
    endloop
  endfacet
  facet normal 0.33874 0.94088 0
    outer loop
      vertex 8.04894 18.0722 16
      vertex 8.36221 17.9594 5.38865
      vertex 8.04894 18.0722 5.35227
    endloop
  endfacet
  facet normal 0.27899 0.960294 0
    outer loop
      vertex 8.68194 17.8665 16
      vertex 8.68194 17.8665 5.41861
      vertex 8.36221 17.9594 16
    endloop
  endfacet
  facet normal 0.27899 0.960294 0
    outer loop
      vertex 8.36221 17.9594 16
      vertex 8.68194 17.8665 5.41861
      vertex 8.36221 17.9594 5.38865
    endloop
  endfacet
  facet normal 0.218142 0.975917 0
    outer loop
      vertex 9.00688 17.7939 16
      vertex 9.00688 17.7939 5.44203
      vertex 8.68194 17.8665 16
    endloop
  endfacet
  facet normal 0.218142 0.975917 0
    outer loop
      vertex 8.68194 17.8665 16
      vertex 9.00688 17.7939 5.44203
      vertex 8.68194 17.8665 5.41861
    endloop
  endfacet
  facet normal 0.156436 0.987688 0
    outer loop
      vertex 9.33573 17.7418 16
      vertex 9.33573 17.7418 5.45883
      vertex 9.00688 17.7939 16
    endloop
  endfacet
  facet normal 0.156436 0.987688 0
    outer loop
      vertex 9.00688 17.7939 16
      vertex 9.33573 17.7418 5.45883
      vertex 9.00688 17.7939 5.44203
    endloop
  endfacet
  facet normal 0.0941092 0.995562 0
    outer loop
      vertex 9.66721 17.7105 16
      vertex 9.66721 17.7105 5.46893
      vertex 9.33573 17.7418 16
    endloop
  endfacet
  facet normal 0.0941092 0.995562 0
    outer loop
      vertex 9.33573 17.7418 16
      vertex 9.66721 17.7105 5.46893
      vertex 9.33573 17.7418 5.45883
    endloop
  endfacet
  facet normal 0.0314097 0.999507 0
    outer loop
      vertex 10 17.7 16
      vertex 10 17.7 5.47231
      vertex 9.66721 17.7105 16
    endloop
  endfacet
  facet normal 0.0314097 0.999507 0
    outer loop
      vertex 9.66721 17.7105 16
      vertex 10 17.7 5.47231
      vertex 9.66721 17.7105 5.46893
    endloop
  endfacet
  facet normal -0.0314097 0.999507 0
    outer loop
      vertex 10.3328 17.7105 16
      vertex 10.3328 17.7105 5.46893
      vertex 10 17.7 16
    endloop
  endfacet
  facet normal -0.0314097 0.999507 0
    outer loop
      vertex 10 17.7 16
      vertex 10.3328 17.7105 5.46893
      vertex 10 17.7 5.47231
    endloop
  endfacet
  facet normal -0.0941092 0.995562 0
    outer loop
      vertex 10.6643 17.7418 16
      vertex 10.6643 17.7418 5.45883
      vertex 10.3328 17.7105 16
    endloop
  endfacet
  facet normal -0.0941092 0.995562 0
    outer loop
      vertex 10.3328 17.7105 16
      vertex 10.6643 17.7418 5.45883
      vertex 10.3328 17.7105 5.46893
    endloop
  endfacet
  facet normal -0.156436 0.987688 0
    outer loop
      vertex 10.9931 17.7939 16
      vertex 10.9931 17.7939 5.44203
      vertex 10.6643 17.7418 16
    endloop
  endfacet
  facet normal -0.156436 0.987688 0
    outer loop
      vertex 10.6643 17.7418 16
      vertex 10.9931 17.7939 5.44203
      vertex 10.6643 17.7418 5.45883
    endloop
  endfacet
  facet normal -0.218142 0.975917 0
    outer loop
      vertex 11.3181 17.8665 16
      vertex 11.3181 17.8665 5.41861
      vertex 10.9931 17.7939 16
    endloop
  endfacet
  facet normal -0.218142 0.975917 0
    outer loop
      vertex 10.9931 17.7939 16
      vertex 11.3181 17.8665 5.41861
      vertex 10.9931 17.7939 5.44203
    endloop
  endfacet
  facet normal -0.27899 0.960294 0
    outer loop
      vertex 11.6378 17.9594 16
      vertex 11.6378 17.9594 5.38865
      vertex 11.3181 17.8665 16
    endloop
  endfacet
  facet normal -0.27899 0.960294 0
    outer loop
      vertex 11.3181 17.8665 16
      vertex 11.6378 17.9594 5.38865
      vertex 11.3181 17.8665 5.41861
    endloop
  endfacet
  facet normal -0.33874 0.94088 0
    outer loop
      vertex 11.9511 18.0722 16
      vertex 11.9511 18.0722 5.35227
      vertex 11.6378 17.9594 16
    endloop
  endfacet
  facet normal -0.33874 0.94088 0
    outer loop
      vertex 11.6378 17.9594 16
      vertex 11.9511 18.0722 5.35227
      vertex 11.6378 17.9594 5.38865
    endloop
  endfacet
  facet normal -0.397148 0.917755 0
    outer loop
      vertex 12.2566 18.2044 16
      vertex 12.2566 18.2044 5.30963
      vertex 11.9511 18.0722 16
    endloop
  endfacet
  facet normal -0.397148 0.917755 0
    outer loop
      vertex 11.9511 18.0722 16
      vertex 12.2566 18.2044 5.30963
      vertex 11.9511 18.0722 5.35227
    endloop
  endfacet
  facet normal -0.453991 0.891006 0
    outer loop
      vertex 12.5533 18.3556 16
      vertex 12.5533 18.3556 5.26088
      vertex 12.2566 18.2044 16
    endloop
  endfacet
  facet normal -0.453991 0.891006 0
    outer loop
      vertex 12.2566 18.2044 16
      vertex 12.5533 18.3556 5.26088
      vertex 12.2566 18.2044 5.30963
    endloop
  endfacet
  facet normal -0.50904 0.860743 0
    outer loop
      vertex 12.8399 18.5251 16
      vertex 12.8399 18.5251 5.20622
      vertex 12.5533 18.3556 16
    endloop
  endfacet
  facet normal -0.50904 0.860743 0
    outer loop
      vertex 12.5533 18.3556 16
      vertex 12.8399 18.5251 5.20622
      vertex 12.5533 18.3556 5.26088
    endloop
  endfacet
  facet normal -0.562083 0.827081 0
    outer loop
      vertex 13.1153 18.7122 16
      vertex 13.1153 18.7122 5.14586
      vertex 12.8399 18.5251 16
    endloop
  endfacet
  facet normal -0.562083 0.827081 0
    outer loop
      vertex 12.8399 18.5251 16
      vertex 13.1153 18.7122 5.14586
      vertex 12.8399 18.5251 5.20622
    endloop
  endfacet
  facet normal -0.612908 0.790154 0
    outer loop
      vertex 13.3783 18.9163 16
      vertex 13.3783 18.9163 5.08005
      vertex 13.1153 18.7122 16
    endloop
  endfacet
  facet normal -0.612908 0.790154 0
    outer loop
      vertex 13.1153 18.7122 16
      vertex 13.3783 18.9163 5.08005
      vertex 13.1153 18.7122 5.14586
    endloop
  endfacet
  facet normal -0.66131 0.750112 0
    outer loop
      vertex 13.6281 19.1365 16
      vertex 13.6281 19.1365 5.00903
      vertex 13.3783 18.9163 16
    endloop
  endfacet
  facet normal -0.66131 0.750112 0
    outer loop
      vertex 13.3783 18.9163 16
      vertex 13.6281 19.1365 5.00903
      vertex 13.3783 18.9163 5.08005
    endloop
  endfacet
  facet normal -0.707107 0.707107 0
    outer loop
      vertex 13.8635 19.3719 16
      vertex 13.8635 19.3719 4.9331
      vertex 13.6281 19.1365 16
    endloop
  endfacet
  facet normal -0.707107 0.707107 0
    outer loop
      vertex 13.6281 19.1365 16
      vertex 13.8635 19.3719 4.9331
      vertex 13.6281 19.1365 5.00903
    endloop
  endfacet
  facet normal -0.750112 0.66131 0
    outer loop
      vertex 14.0837 19.6217 16
      vertex 14.0837 19.6217 4.85256
      vertex 13.8635 19.3719 16
    endloop
  endfacet
  facet normal -0.750112 0.66131 0
    outer loop
      vertex 13.8635 19.3719 16
      vertex 14.0837 19.6217 4.85256
      vertex 13.8635 19.3719 4.9331
    endloop
  endfacet
  facet normal -0.790154 0.612908 0
    outer loop
      vertex 14.2878 19.8847 16
      vertex 14.2878 19.8847 4.76771
      vertex 14.0837 19.6217 16
    endloop
  endfacet
  facet normal -0.790154 0.612908 0
    outer loop
      vertex 14.0837 19.6217 16
      vertex 14.2878 19.8847 4.76771
      vertex 14.0837 19.6217 4.85256
    endloop
  endfacet
  facet normal -0.827081 0.562083 0
    outer loop
      vertex 14.4749 20.1601 16
      vertex 14.4749 20.1601 4.6789
      vertex 14.2878 19.8847 16
    endloop
  endfacet
  facet normal -0.827081 0.562083 0
    outer loop
      vertex 14.2878 19.8847 16
      vertex 14.4749 20.1601 4.6789
      vertex 14.2878 19.8847 4.76771
    endloop
  endfacet
  facet normal -0.860743 0.50904 0
    outer loop
      vertex 14.6444 20.4467 16
      vertex 14.6444 20.4467 4.58647
      vertex 14.4749 20.1601 16
    endloop
  endfacet
  facet normal -0.860743 0.50904 0
    outer loop
      vertex 14.4749 20.1601 16
      vertex 14.6444 20.4467 4.58647
      vertex 14.4749 20.1601 4.6789
    endloop
  endfacet
  facet normal -0.891006 0.453991 0
    outer loop
      vertex 14.7956 20.7434 16
      vertex 14.7956 20.7434 4.49079
      vertex 14.6444 20.4467 16
    endloop
  endfacet
  facet normal -0.891006 0.453991 0
    outer loop
      vertex 14.6444 20.4467 16
      vertex 14.7956 20.7434 4.49079
      vertex 14.6444 20.4467 4.58647
    endloop
  endfacet
  facet normal -0.917755 0.397148 0
    outer loop
      vertex 14.9278 21.0489 16
      vertex 14.9278 21.0489 4.39224
      vertex 14.7956 20.7434 16
    endloop
  endfacet
  facet normal -0.917755 0.397148 0
    outer loop
      vertex 14.7956 20.7434 16
      vertex 14.9278 21.0489 4.39224
      vertex 14.7956 20.7434 4.49079
    endloop
  endfacet
  facet normal -0.94088 0.33874 0
    outer loop
      vertex 15.0406 21.3622 16
      vertex 15.0406 21.3622 4.29121
      vertex 14.9278 21.0489 16
    endloop
  endfacet
  facet normal -0.94088 0.33874 0
    outer loop
      vertex 14.9278 21.0489 16
      vertex 15.0406 21.3622 4.29121
      vertex 14.9278 21.0489 4.39224
    endloop
  endfacet
  facet normal -0.960294 0.27899 0
    outer loop
      vertex 15.1335 21.6819 16
      vertex 15.1335 21.6819 4.18809
      vertex 15.0406 21.3622 16
    endloop
  endfacet
  facet normal -0.960294 0.27899 0
    outer loop
      vertex 15.0406 21.3622 16
      vertex 15.1335 21.6819 4.18809
      vertex 15.0406 21.3622 4.29121
    endloop
  endfacet
  facet normal -0.975917 0.218142 0
    outer loop
      vertex 15.2061 22.0069 16
      vertex 15.2061 22.0069 4.0833
      vertex 15.1335 21.6819 16
    endloop
  endfacet
  facet normal -0.975917 0.218142 0
    outer loop
      vertex 15.1335 21.6819 16
      vertex 15.2061 22.0069 4.0833
      vertex 15.1335 21.6819 4.18809
    endloop
  endfacet
  facet normal -0.987688 0.156436 0
    outer loop
      vertex 15.2582 22.3357 16
      vertex 15.2582 22.3357 3.97724
      vertex 15.2061 22.0069 16
    endloop
  endfacet
  facet normal -0.987688 0.156436 0
    outer loop
      vertex 15.2061 22.0069 16
      vertex 15.2582 22.3357 3.97724
      vertex 15.2061 22.0069 4.0833
    endloop
  endfacet
  facet normal -0.995562 0.0941092 0
    outer loop
      vertex 15.2895 22.6672 16
      vertex 15.2895 22.6672 3.87034
      vertex 15.2582 22.3357 16
    endloop
  endfacet
  facet normal -0.995562 0.0941092 0
    outer loop
      vertex 15.2582 22.3357 16
      vertex 15.2895 22.6672 3.87034
      vertex 15.2582 22.3357 3.97724
    endloop
  endfacet
  facet normal -0.999507 0.0314097 0
    outer loop
      vertex 15.3 23 16
      vertex 15.3 23 3.76301
      vertex 15.2895 22.6672 16
    endloop
  endfacet
  facet normal -0.999507 0.0314097 0
    outer loop
      vertex 15.2895 22.6672 16
      vertex 15.3 23 3.76301
      vertex 15.2895 22.6672 3.87034
    endloop
  endfacet
  facet normal -1 6.12303e-017 0
    outer loop
      vertex 15.3 30.5 16
      vertex 15.3 30.5 1.34419
      vertex 15.3 23 16
    endloop
  endfacet
  facet normal -1 6.12303e-017 0
    outer loop
      vertex 15.3 23 16
      vertex 15.3 30.5 1.34419
      vertex 15.3 23 3.76301
    endloop
  endfacet
endsolid OpenSCAD_Model
